<svg xmlns="http://www.w3.org/2000/svg" viewBox="0 0 592.51 88.44"><defs><style>.cls-1{fill:#006;}</style></defs><g id="レイヤー_2" data-name="レイヤー 2"><g id="レイヤー_1-2" data-name="レイヤー 1"><path class="cls-1" d="M12.38,29.34,4.73,52.89,0,38.34l12.38-9m3-2.39L7.77,50.5l4.72,14.55L15.42,27m2.13,5.64-2.92,38.1H29.94L17.55,32.59m-.28-7.17L29.65,63.53H45L17.27,25.42M10.64,13.68,38.33,51.79,23,4.69l-12.38,9M27.52,10.9,42.83,58,39.9,19.9l-12.38-9M41.85,22.56l2.93,38.1,9.45-29.11-12.38-9m74.85-8.81a9,9,0,0,1-1.93-1c-.12-.08-.13-.21,0-.36a15.89,15.89,0,0,0,1.77-3.08c.09-.2.17-.19.32-.2.46,0,.61-.09.61-.24s-1.63-1-2.29-1.25c-.18-.08-.25,0-.33.26-.17.54-.29.86-.46,1.31a16,16,0,0,1-1.05,2.11.19.19,0,0,1-.34,0,21.31,21.31,0,0,1-1.91-3.37c0-.11-.12-.13-.18-.11l-.4.18a.16.16,0,0,0,0,.21c.41,1,1.44,3.2,2,4.1a.24.24,0,0,1,0,.3A14.84,14.84,0,0,1,106.81,17c-.1.05-.07.28.08.24A13.54,13.54,0,0,0,110.55,16a11.68,11.68,0,0,0,2.84-2,.21.21,0,0,1,.29,0,14.43,14.43,0,0,0,3.45,2.67,3.08,3.08,0,0,0,.92.39c.12,0,.19-.07.23-.28a3,3,0,0,1,.25-.7,2.81,2.81,0,0,1,1.24-1.24c.13-.07.08-.17,0-.19A11.51,11.51,0,0,1,116.7,13.75ZM109.06,3.64c-.16,0-.29-.08-.29-.19s.13-.19.29-.19h3a.29.29,0,0,0,.3-.29V.41c0-.16.07-.28.23-.26,0,0,1.51.17,2.21.29.29,0,.35.12.34.21s-.49.35-.49.35a.5.5,0,0,0-.26.41V3a.29.29,0,0,0,.29.29H116a.67.67,0,0,0,.48-.23L117.38,2a.29.29,0,0,1,.41-.05l1.72,1.49a.14.14,0,0,1-.1.26Zm1.39.91a.28.28,0,0,1,.37-.17,10.77,10.77,0,0,1,2.25,1c0,.15-.26.27-.64.27h0a.62.62,0,0,0-.37.21s-2.8,2.47-4.26,3.5c-.11.07-.2.06-.24,0s0-.1.07-.22a21.18,21.18,0,0,0,2-2.85A12.33,12.33,0,0,0,110.45,4.55ZM118,5.72c.79.49,1,.83,1,1.47s-.39,1.5-.84,1.5c-.27,0-.44-.15-.78-.75a19,19,0,0,0-2.77-3.17c-.12-.11-.2-.23-.18-.28s.17,0,.32,0A22.55,22.55,0,0,1,118,5.72Zm-11,2.07a5.4,5.4,0,0,0-.63-1.7c-.08-.14-.15-.12-.15,0V16.79c0,.16,0,.42-.21.46a7.66,7.66,0,0,1-1.41.08c-.21,0-.2-.34-.2-.61V9.23c0-.16-.06-.18-.13,0a41.24,41.24,0,0,1-2.41,3.73c-.1.12-.23.19-.29.15s0-.18,0-.32.25-.55.37-.82c.35-.78.68-1.58,1-2.39s.56-1.74.78-2.63c.1-.45.19-.9.28-1.35,0-.23.07-.45.11-.68s0-.33-.24-.33h-1.78c-.16,0-.29-.09-.29-.2s.13-.2.29-.2h1.91a.3.3,0,0,0,.3-.29V.31a.26.26,0,0,1,.29-.26s1.32.18,2,.32c.25,0,.41.09.39.2s-.34.25-.45.3a.57.57,0,0,0-.27.41V3.92c0,.13.06.24.19.24h0c.09,0,.2-.15.26-.23l.64-.87a.25.25,0,0,1,.38,0l1.26,1.28c.12.12.08.25-.09.25h-2.41a.29.29,0,0,0-.29.29v.37a.47.47,0,0,0,.27.41l.8.42a5,5,0,0,1,.48.32s.5.41.5.74c0,.59-.49,1.28-.9,1.28C107.22,8.39,107.09,8.22,107.06,7.79Zm-24.29-4a1.65,1.65,0,0,0,1.35-1.6c0-.75-2.84-2.07-2.84-2.07S81,.05,81,.1s0,.19.08.33a9.33,9.33,0,0,1,1.1,2.42C82.33,3.66,82.45,3.81,82.77,3.81ZM79,4c.58,0,1.2-.79,1.2-1.49S77.39.44,77.39.44s-.29-.09-.31,0,0,.19.1.32a9.69,9.69,0,0,1,1.21,2.54C78.56,3.83,78.73,4,79,4ZM89.55,9.15a.32.32,0,0,0-.42,0L88,10.43a.72.72,0,0,1-.48.22H84.2a.29.29,0,0,1-.29-.29V9.85a.48.48,0,0,1,.27-.4s.45-.12.44-.31-.24-.24-.06-.32l2.91-1.29A1.12,1.12,0,0,1,88,7.4c.5,0,.77-.1.77-.28A.26.26,0,0,0,88.65,7a3.58,3.58,0,0,0-.33-.3.11.11,0,0,1,0-.19l.46-.29,1.42-.91a1.23,1.23,0,0,1,.52-.2s.84-.07.87-.29,0-.23-.18-.34L89.65,3.08a.36.36,0,0,0-.44,0l-.77.73a.82.82,0,0,1-.5.2h-2c-.16,0-.18-.07,0-.17l2.53-2.08a.78.78,0,0,1,.39-.19c.51,0,.75-.09.77-.3a.19.19,0,0,0-.14-.2L86.88.2a.31.31,0,0,0-.38.18L85,3.78A.51.51,0,0,1,84.6,4H77.08a.32.32,0,0,1-.31-.29L76.69,3c0-.3-.29-.33-.33-.12a6,6,0,0,1-.21.69,5.18,5.18,0,0,1-.52,1.12,2.56,2.56,0,0,1-.39.48c-.29.26-.72.35-.92.7a1.31,1.31,0,0,0,0,1,1.2,1.2,0,0,0,.72.81.92.92,0,0,0,.77-.23,2.66,2.66,0,0,0,.59-.66,3.78,3.78,0,0,0,.36-1.45,5.52,5.52,0,0,0,.06-.81c0-.11,0-.17.21-.17H88.13a.22.22,0,0,1,.22.28L88,6a.19.19,0,0,1-.32.1l-1-.67a.36.36,0,0,0-.45,0l-.58.6a.83.83,0,0,1-.5.21h-7.3c-.16,0-.29.09-.29.2s.13.19.29.19h7.25c.16,0,.21.11.11.23L83.87,8.54a.62.62,0,0,1-.49.16l-1.32-.19a.26.26,0,0,0-.29.26v1.59a.33.33,0,0,1-.35.29H74.51c-.16,0-.29.09-.29.19s.13.19.29.19h7a.29.29,0,0,1,.29.29v3.52c0,.26-.2.38-.45.36L78,15c-.16,0-.29,0-.29.1s.13.15.28.19a11.09,11.09,0,0,1,2.29.77,1.42,1.42,0,0,1,.53,1c0,.3.09.36.34.36a4.82,4.82,0,0,0,2-.47,1.46,1.46,0,0,0,.69-1.4V11.33A.29.29,0,0,1,84.2,11h7.24c.19,0,.26-.17.08-.32ZM360.24,3.81a1.65,1.65,0,0,0,1.35-1.6c0-.75-2.84-2.07-2.84-2.07s-.3-.09-.34,0,0,.19.09.33a9.33,9.33,0,0,1,1.1,2.42C359.8,3.66,359.92,3.81,360.24,3.81ZM356.5,4c.58,0,1.2-.79,1.2-1.49S354.86.44,354.86.44s-.29-.09-.32,0,0,.19.11.32a9.69,9.69,0,0,1,1.21,2.54C356,3.83,356.2,4,356.5,4ZM367,9.15a.32.32,0,0,0-.42,0l-1.1,1.24a.72.72,0,0,1-.48.22h-3.35a.29.29,0,0,1-.29-.29V9.85a.46.46,0,0,1,.27-.4s.44-.12.44-.31-.24-.24-.06-.32l2.9-1.29a1.2,1.2,0,0,1,.49-.13c.49,0,.77-.1.77-.28a.25.25,0,0,0-.08-.17,3.73,3.73,0,0,0-.32-.3.11.11,0,0,1,0-.19l.46-.29,1.42-.91a1.23,1.23,0,0,1,.52-.2s.84-.07.87-.29,0-.23-.18-.34l-1.78-1.35a.38.38,0,0,0-.45,0l-.76.73a.82.82,0,0,1-.5.2h-2c-.16,0-.18-.07-.06-.17l2.54-2.08a.78.78,0,0,1,.39-.19c.51,0,.75-.09.77-.3a.19.19,0,0,0-.14-.2L364.35.2a.31.31,0,0,0-.38.18l-1.48,3.4a.51.51,0,0,1-.42.25h-7.52a.32.32,0,0,1-.31-.29l-.09-.7c0-.3-.28-.33-.32-.12a6,6,0,0,1-.21.69,5.22,5.22,0,0,1-.53,1.12,2.51,2.51,0,0,1-.38.48c-.29.26-.72.35-.92.7a1.31,1.31,0,0,0,0,1,1.17,1.17,0,0,0,.72.81.92.92,0,0,0,.77-.23,2.44,2.44,0,0,0,.58-.66,3.62,3.62,0,0,0,.37-1.45,5.52,5.52,0,0,0,.06-.81c0-.11.05-.17.21-.17H365.6a.22.22,0,0,1,.22.28L365.44,6a.2.2,0,0,1-.33.1l-.95-.67a.36.36,0,0,0-.45,0l-.58.6a.86.86,0,0,1-.5.21h-7.3c-.16,0-.29.09-.29.2s.13.19.29.19h7.25c.16,0,.21.11.11.23l-1.35,1.61a.62.62,0,0,1-.49.16l-1.32-.19a.26.26,0,0,0-.29.26v1.59a.33.33,0,0,1-.35.29H352c-.16,0-.29.09-.29.19s.13.19.29.19h7a.29.29,0,0,1,.29.29v3.52c0,.26-.2.38-.45.36L355.51,15c-.16,0-.29,0-.29.1s.13.15.28.19a11.09,11.09,0,0,1,2.29.77,1.46,1.46,0,0,1,.53,1c0,.3.09.36.34.36a4.86,4.86,0,0,0,2-.47,1.46,1.46,0,0,0,.69-1.4V11.33a.29.29,0,0,1,.29-.29h7.24c.19,0,.26-.17.08-.32ZM129.67,4.53a.53.53,0,0,0,.12.38,10.35,10.35,0,0,1,1.34,2.3c.3.84.37.93.69.93a1.54,1.54,0,0,0,1.24-1.52c0-.89-.89-1.49-3.24-2.09C129.78,4.51,129.69,4.48,129.67,4.53Zm0,6.72c-.08.11.08.29.23.35a3.59,3.59,0,0,1,.87.49,1.7,1.7,0,0,1,.39,1.2v.3c0,.45-.08.91-.14,1.36,0,.24-.06.47-.1.71s-.1.49-.12.73a.6.6,0,0,0,.16.48.56.56,0,0,0,.28.13,1.57,1.57,0,0,0,.83-.11,2.13,2.13,0,0,0,1.27-2,4.5,4.5,0,0,0-.42-1.66,2.6,2.6,0,0,1-.17-.72,5.49,5.49,0,0,1,.19-.9c0-.15.12-.4.16-.55l2.34-7.45a.27.27,0,0,0-.16-.35c-.63,1.58-1,2.49-1.76,4s-1.55,3.17-1.81,3.65-.4.58-.66.58a8.82,8.82,0,0,1-1.23-.22C129.81,11.24,129.72,11.22,129.71,11.25ZM131,.82a12.23,12.23,0,0,1,1.66,2.68c.17.41.3.54.6.54.55,0,1.16-.77,1.16-1.48,0-.95-.81-1.47-3.31-2.07-.07,0-.2-.06-.23,0A.44.44,0,0,0,131,.82Zm12.1,7.57h-1.83A.3.3,0,0,1,141,8.1V4.78a.29.29,0,0,1,.29-.29h5.14c.11,0,.18-.06.18-.11s0-.1-.11-.19a23.61,23.61,0,0,0-1.87-1.52c-.16-.13-.23-.14-.36,0L143.2,3.88a.6.6,0,0,1-.47.22h-1.46a.29.29,0,0,1-.29-.29V1.27c.67-.28.78-.36.78-.52s-.07-.19-.24-.25-1.75-.21-2.35-.27c-.15,0-.23.09-.23.24V3.81a.29.29,0,0,1-.29.29h-2.6c-.16,0-.3.09-.3.19s.14.2.3.2h2.6a.29.29,0,0,1,.29.29V8.1a.3.3,0,0,1-.29.29h-3.94c-.16,0-.29.08-.29.19s.13.2.29.2h3.22c.2,0,.3.18.25.4a25.24,25.24,0,0,1-1.34,4.43,1.07,1.07,0,0,1-.82.49h-.16c-.4,0-.69,0-1.26,0-.15,0-.27.08-.22.26.6,2.47.69,2.78.91,2.78s.26-.19.33-.59a.41.41,0,0,1,.31-.3c5.38-1.25,5.81-1.35,7.41-1.82.27-.08.44,0,.52.18.19.48.35.84.49,1.32.22.69.39.91.67.91.62,0,1.31-1,1.31-2,0-.57-.31-1.09-1.12-1.93a24.28,24.28,0,0,0-3.37-2.45.32.32,0,0,0-.28-.06c-.14.06-.08.14,0,.19a12.16,12.16,0,0,1,1.75,2.7c.09.19,0,.34-.13.36-1.47.16-3,.25-4.92.37-.38,0-.49-.13-.31-.39.52-.76.85-1.26,1.23-1.88C139.63,11,140.62,9,140.62,9a.5.5,0,0,1,.42-.26h5.89c.11,0,.21-.06.21-.13s0-.1-.11-.19A20.11,20.11,0,0,0,145.25,7a.43.43,0,0,0-.64.07c-.3.35-.62.7-1,1.08A.65.65,0,0,1,143.1,8.39Zm14.24,8.74c0,.11.19.1.34,0,0,0,1.51-.7,2.13-1.1a13.17,13.17,0,0,0,5-5.61,15.85,15.85,0,0,0,1.45-5.61c0-.28.18-.23.2,0a21.78,21.78,0,0,0,.63,3.7,15.4,15.4,0,0,0,2.85,6,10,10,0,0,0,2.82,2.43c.1,0,.17-.05.25-.24a4.31,4.31,0,0,1,1.65-1.84c.15-.09.32-.31,0-.43a10.67,10.67,0,0,1-3.27-1.7,11.28,11.28,0,0,1-4-5.94,15.54,15.54,0,0,1-.75-4.38c0-.15,0-.37,0-.65.62-.23.79-.34.79-.49S167.06,1,165.72.8l-.89-.08c-.42,0-.55.13-.55.48v.52c0,.84-.09,2.21-.2,3.2a18.07,18.07,0,0,1-2,6.72A14.27,14.27,0,0,1,157.47,17C157.42,17,157.32,17.06,157.34,17.13Zm41.45-12h-3.46c-.16,0-.18-.07-.05-.16s.78-.53,2.39-1.79a.56.56,0,0,1,.19-.09,5.26,5.26,0,0,0,.78-.15c.13,0,.2-.11.2-.18s-.13-.27-.41-.49l-1.66-1.18a.16.16,0,0,0-.25,0c-.42.4-.77.78-.77.78a.75.75,0,0,1-.49.21h-2.78a.08.08,0,0,1-.07-.13c.17-.21.26-.34.47-.61a.14.14,0,0,1,.13-.07c.7-.08.89-.17.89-.37s-.08-.19-.26-.26A24.74,24.74,0,0,0,191.07,0a.22.22,0,0,0-.29.17,13.09,13.09,0,0,1-1.54,3,27.86,27.86,0,0,1-3.17,3.71c-.11.11-.2.23-.13.32l0,0s.17,0,.22-.06a16.74,16.74,0,0,0,2-1.14c.12-.08.32-.23.32.17v1a21.65,21.65,0,0,1-2,9.86,1.3,1.3,0,0,0-.08.17.22.22,0,0,0,0,.16s0,0,0,0a.65.65,0,0,0,.22-.11l.24-.16.48-.34a8.75,8.75,0,0,0,.89-.72,8.28,8.28,0,0,0,2.07-3.71.42.42,0,0,1,.38-.27h8.13a.3.3,0,0,1,.29.29v2.42c0,.32-.13.4-.38.39-2.17-.09-3.57-.18-3.57-.18-.16,0-.28,0-.3.17s.06.07.1.07c2.33.48,3,.88,3.08,1.8,0,.26.07.32.26.32a6.35,6.35,0,0,0,2-.47c.62-.3.86-1.33.86-1.33a3.68,3.68,0,0,0,.06-.57s0-8.51,0-8.55a.47.47,0,0,1,.21-.42c.23-.12.43-.29.43-.44s-.09-.23-.36-.43c-.46-.38-.67-.55-1.06-.84a.4.4,0,0,0-.59,0c-.22.21-.36.37-.57.59A.69.69,0,0,1,198.79,5.16Zm-5,0H191a.91.91,0,0,1-.45-.16l-.4-.28c-.09-.06-.12-.2.08-.39.86-.83,1.55-1.59,1.55-1.59a.72.72,0,0,1,.48-.22h2.93c.18,0,.27.09.2.25a9.7,9.7,0,0,1-1.13,2.12A.6.6,0,0,1,193.76,5.16Zm-3,6.5a.26.26,0,0,1-.26-.29l.15-2.45a.31.31,0,0,1,.3-.29h2.51a.29.29,0,0,1,.29.29v2.45a.29.29,0,0,1-.29.29Zm.17-6.1h2.53a.29.29,0,0,1,.29.29V8a.3.3,0,0,1-.29.29h-2.53a.24.24,0,0,1-.25-.24V5.81A.25.25,0,0,1,190.93,5.56Zm4.84.29a.29.29,0,0,1,.29-.29h2.76a.3.3,0,0,1,.29.29V8a.3.3,0,0,1-.29.29h-2.76a.3.3,0,0,1-.29-.29Zm3,2.78a.3.3,0,0,1,.29.29v2.45a.3.3,0,0,1-.29.29h-2.76a.29.29,0,0,1-.29-.29V8.92a.29.29,0,0,1,.29-.29Zm14.7,8.42a.35.35,0,0,0,.27-.11s.89-.75,1.32-1.21a8.76,8.76,0,0,0,2.23-4.27,28,28,0,0,0,.33-5.55c0-2.06.07-3.39.07-4a.24.24,0,0,1,.17-.25c.43-.18.59-.3.59-.45s-.71-.42-2.77-.47c-.24,0-.33.09-.32.4,0,.91.13,2.43.13,4.14v.6c0,.39,0,.39,0,1.19a32.61,32.61,0,0,1-.17,4,11.78,11.78,0,0,1-1.76,5.67,1,1,0,0,1-.11.17C213.39,17,213.44,17,213.52,17.05Zm7.95-15.77c-.19,0-.38.13-.36.44s0,.89,0,1.23v12.2c0,.28.05.37.37.37a7,7,0,0,0,1.59-.17c.13-.06.17-.17.17-.35V2.42c0-.14,0-.19.15-.24.47-.19.56-.26.56-.44s0-.15-.18-.21A18.23,18.23,0,0,0,221.47,1.28Zm5.81-.6c-.22,0-.43.09-.42.32s0,.61,0,1c0,3.19,0,12.31,0,14.61,0,.26.14.33.59.33a6.06,6.06,0,0,0,1.46-.15.34.34,0,0,0,.24-.35c0-.64,0-.85,0-1.93,0-2.34-.07-4.63-.07-6.93,0-1.14,0-2.66,0-5.74,0-.13,0-.17.16-.22.46-.19.59-.3.59-.46S229.25.77,227.28.68ZM249.2,8.26V8a.3.3,0,0,1,.44-.3,11.55,11.55,0,0,1,3.76,2.74c.46.53.61.62.86.62.5,0,.84-.52.84-1.31a1.91,1.91,0,0,0-1.37-1.83,13.82,13.82,0,0,0-4-1,.55.55,0,0,1-.53-.57c.07-2.39.11-2.73.42-3.24a.94.94,0,0,0,.15-.47c0-.39-.26-.69-.93-1.08a5.08,5.08,0,0,0-2.31-.74A1.11,1.11,0,0,0,246,1c-.11,0-.13.14,0,.18a2.21,2.21,0,0,1,1.11.9c.27.48.32,1.12.32,4.49,0,4.51-.11,6.35-.43,7.3a2.07,2.07,0,0,0-.15.71,3.14,3.14,0,0,0,.66,1.56,1.27,1.27,0,0,0,1,.65.7.7,0,0,0,.64-.48,3.06,3.06,0,0,0,.13-1.16c0-.26,0-.51,0-.85,0-2.75,0-3.1,0-3.8Zm3.3-6.56c-.05.08,0,.2.12.31a11,11,0,0,1,2,2.48c.17.3.32.43.51.43.37,0,.69-.43.69-.92,0-.88-.76-1.49-3.07-2.29C252.68,1.68,252.54,1.63,252.5,1.7ZM254.22.44c0,.07,0,.18.15.29a8,8,0,0,1,1,.84A6.4,6.4,0,0,1,256.47,3c.17.26.28.37.45.37s.6-.41.6-.88-.34-1-1.07-1.33a9,9,0,0,0-2-.7C254.37.43,254.24.39,254.22.44Zm20.84,16a.34.34,0,0,0,.26,0,21.16,21.16,0,0,0,4.24-2.9A20.35,20.35,0,0,0,284,5.82a3.2,3.2,0,0,1,.64-1.27.73.73,0,0,0,.26-.55c0-.28-.2-.56-.67-1a3.23,3.23,0,0,0-1.65-.92.88.88,0,0,0-.45.16,1.71,1.71,0,0,1-.75.31c-.45.1-1.18.19-3.74.51a30.64,30.64,0,0,1-3.3.33.81.81,0,0,1-.54-.16,4.26,4.26,0,0,0-2.12-.88c-.24,0-.43,0-.44.08s.11.16.25.24a2,2,0,0,1,.81.88,5.88,5.88,0,0,1,.39,2.37,4.27,4.27,0,0,1-.24,1.61,1.25,1.25,0,0,0-.11.45,2.74,2.74,0,0,0,.5,1.39c.34.52.68.79,1,.79.5,0,.74-.42.74-1.3,0-.11,0-.39-.05-1.14,0-.32,0-.82-.08-1.48,0-.84,0-1.16-.07-1.73,0-.12,0-.26.28-.12a1.59,1.59,0,0,0,.75.22,3.06,3.06,0,0,0,.5-.07,32.61,32.61,0,0,1,5.48-.79c.38,0,.57.23.54.45a21.32,21.32,0,0,1-2.63,7.15A15.59,15.59,0,0,1,275,16.28C275,16.35,275,16.42,275.06,16.46ZM299.35,2.88c-.05.1,0,.25.16.35a14.46,14.46,0,0,1,3.09,3.36c.28.48.46.63.78.63.58,0,1-.67,1-1.55a1.74,1.74,0,0,0-.91-1.61,10.2,10.2,0,0,0-3.94-1.21C299.48,2.84,299.38,2.83,299.35,2.88Zm14.17,1c-.1,0-.23,0-.34.12a67,67,0,0,1-6.56,5.83c-2.23,1.59-4.68,2.88-5.46,2.88-.47,0-1-.45-1.52-1.2-.06-.09-.15-.09-.18.07a1.07,1.07,0,0,0,0,.25,3.58,3.58,0,0,0,.9,2.08c.66.84,1.35,1.36,1.84,1.36a1,1,0,0,0,.78-.46,4.3,4.3,0,0,1,1-.83,29.51,29.51,0,0,0,5.43-4.27,20.06,20.06,0,0,0,4.14-5.63C313.55,4,313.6,3.94,313.52,3.9Zm12.64,0c-.05-.07-.14-.07-.17.08a.75.75,0,0,0,0,.2,2.73,2.73,0,0,0,.52,1.43c.51.76,1.07,1.19,1.54,1.19a1.62,1.62,0,0,0,.73-.18,15.16,15.16,0,0,1,2.56-.71,26.24,26.24,0,0,1,3.43-.43c.32,0,.43.07.43.33,0,.93-.42,4.35-.72,6.13a.43.43,0,0,1-.44.37l-3.2.32-2.34.28c-.4,0-.77.07-1,.07a2.24,2.24,0,0,1-1.89-1.12c0-.07-.11,0-.13.11a1.76,1.76,0,0,0,0,.19c0,1.07,1.31,2.7,2.16,2.7a1.56,1.56,0,0,0,.45-.1,16,16,0,0,1,6.12-1.06,12.21,12.21,0,0,1,1.61.09c.6.07.73.09.88.09.39,0,.6-.18.6-.54s-.28-.78-.87-1.24a.26.26,0,0,1-.13-.31c.07-.29.16-.65.25-1.09.51-2.1.54-2.25.71-2.94a3.36,3.36,0,0,1,.47-1.2c.26-.26.32-.37.32-.58s-.17-.56-.68-1a3.55,3.55,0,0,0-1.72-1.08.88.88,0,0,0-.47.13,2.84,2.84,0,0,1-1.18.39c-2,.3-5,.62-5.84.62a2,2,0,0,1-1.2-.32A2.86,2.86,0,0,1,326.16,3.87Zm9.72-2.31a11.08,11.08,0,0,1,1.85,2.18c.3.53.37.6.6.6s.65-.49.65-1.07c0-.41-.17-.65-.73-1a10.32,10.32,0,0,0-1.95-.86l-.41-.13c-.07,0-.14,0-.16,0S335.76,1.45,335.88,1.56ZM337.55.14s0,.18.14.28a10.84,10.84,0,0,1,2,2c.3.49.35.57.54.57s.58-.49.58-1-.23-.75-.86-1.09a7.73,7.73,0,0,0-2.24-.68S337.57.09,337.55.14ZM382,16.39a.29.29,0,0,1,.29-.29h11a.29.29,0,0,1,.29.29v.4c0,.34.13.4.75.4a2.24,2.24,0,0,0,1.25-.25c.1-.09.13-.22.13-.45V2.25c0-.24.07-.26.17-.33.35-.24.38-.29.38-.46s-.06-.21-.21-.34c-.53-.4-.76-.59-1.23-.93-.23-.17-.36-.2-.57,0l-.72.75a.76.76,0,0,1-.49.22H382.32l-2-1a.25.25,0,0,0-.38.23v16.4c0,.38.15.45.77.45a2.62,2.62,0,0,0,1.16-.17.38.38,0,0,0,.17-.37Zm0-14.53a.29.29,0,0,1,.29-.29h11a.29.29,0,0,1,.29.29V15.42a.29.29,0,0,1-.29.29h-11a.29.29,0,0,1-.29-.29Zm3.94,5.36a1.48,1.48,0,0,1-.55-.13l-1.45-.61c-.21-.09-.28,0-.28.11v3.69c0,.26.1.3.68.3a2.76,2.76,0,0,0,1.05-.15.21.21,0,0,0,.11-.22V10c0-.09.13-.17.29-.17h.72c.08,0,.13,0,.08.1a31.46,31.46,0,0,1-4.24,4.22c-.12.1-.17.25-.11.33h0a17.59,17.59,0,0,0,2.14-.9,16.89,16.89,0,0,0,2.22-1.56c.13-.1.2-.05.2.11v2.67c0,.35.07.43.63.43.92,0,1.12-.11,1.12-.51v-3c0-.17.11-.23.21-.17a5.31,5.31,0,0,1,.56.43,13.22,13.22,0,0,1,1.91,2.19c.36.54.39.58.62.58.41,0,.8-.56.8-1.14s-.52-1.11-2.26-1.85a20.79,20.79,0,0,0,2.17-.83A2.46,2.46,0,0,0,393,11c.15,0,.28-.08.28-.17s-.07-.18-.26-.3l-1.1-.71a.36.36,0,0,1-.17-.34V8.05c0-.08,0-.15.16-.22s.32-.2.32-.31-.05-.18-.2-.3c-.42-.31-.61-.44-1-.68-.19-.14-.28-.15-.45,0s-.42.36-.75.68Zm2.86-3.53a.3.3,0,0,1-.29-.29V3c0-.06,0-.09.1-.1.46-.13.6-.21.6-.37s-.36-.3-2.37-.48c-.18,0-.21.08-.21.21V3.49c0,.16-.12.2-.28.2h-2.82c-.16,0-.29.08-.29.19s.13.2.29.2h2.82a.29.29,0,0,1,.29.29v1a.29.29,0,0,1-.29.29h-3.66c-.15,0-.28.09-.28.2s.13.19.28.19H393.2c.16,0,.26,0,.26-.12a.35.35,0,0,0-.13-.22c-.09-.07-.72-.62-1.16-1-.24-.19-.35-.2-.54,0l-.66.7a.72.72,0,0,1-.48.22H388.8a.29.29,0,0,1-.29-.29v-1a.29.29,0,0,1,.29-.29h3.81c.15,0,.25-.06.25-.13s-.06-.16-.18-.27-.66-.58-1.11-.92c-.24-.18-.33-.22-.55,0s-.47.5-.84.93Zm-3.3,4.22a.29.29,0,0,1,.29-.29h3.87a.3.3,0,0,1,.3.29V9.18a.3.3,0,0,1-.3.29h-3.87a.29.29,0,0,1-.29-.29Zm3.05,3v-.75a.3.3,0,0,1,.29-.29h.82a.28.28,0,0,1,.3.25h0c0,.19.11.24.52.24h.31c.1,0,.15.06.08.14a8.79,8.79,0,0,1-1.06,1l-1.11-.41A.21.21,0,0,1,388.55,10.9ZM134,52.46h0Zm17.25,11.88s-1.5.1-2.76.14c-.32,0-.75-.19-.75-.53v-.58c0-.25-.31-.45-.69-.45h-7.67a.7.7,0,0,0-.7.7V65a.82.82,0,0,1-.72.84c-.45.09-2.58.18-3,.18a.86.86,0,0,1-.83-.88V53.21a.43.43,0,0,1,.64-.43l3.73,1.67a3.64,3.64,0,0,0,1.33.31h6.81a2,2,0,0,0,1.2-.49l1.38-1.33a.9.9,0,0,1,1.08-.08l3.19,2.4a.49.49,0,0,1,0,.81l-.76.5a.75.75,0,0,0-.36.73V63C152.39,63.71,152.39,64.25,151.29,64.34Zm-3.51-7.94a.7.7,0,0,0-.69-.7h-7.67a.7.7,0,0,0-.7.7v4.87a.7.7,0,0,0,.7.7h7.67a.69.69,0,0,0,.69-.7Zm8.53-17.9c.4.27.34.6.11.78s-.44.35-.74.63-.46.33-.46.65v6.23a1,1,0,0,1-1.05,1.11S152.42,48,151,48a.75.75,0,0,1-.72-.68v-.56a.76.76,0,0,0-.7-.72H136.94a.77.77,0,0,0-.78.55c0,.33,0,.9-.25,1.12a.9.9,0,0,1-.4.13,23.6,23.6,0,0,1-3.39.3.81.81,0,0,1-.72-.82V36.66a.44.44,0,0,1,.65-.44l4,1.73a3.63,3.63,0,0,0,1.33.3h11.95a1.78,1.78,0,0,0,1.17-.52l1.32-1.35a1,1,0,0,1,1.11-.11S155.87,38.19,156.31,38.5Zm-6,1.4a.7.7,0,0,0-.7-.7H136.94a.7.7,0,0,0-.7.7v4.51a.7.7,0,0,0,.7.7h12.67a.71.71,0,0,0,.7-.7Zm13.9-6-4.77-3.75a.79.79,0,0,0-1,.1l-2.5,2.83a1.74,1.74,0,0,1-1.16.53H146.5a.7.7,0,0,1-.7-.7V31.47a1.23,1.23,0,0,1,.62-1s1.09-.55,1.09-.87c0-.58-1.17-.9-3.92-1.08-.68,0-2.32-.19-2.32-.19a.63.63,0,0,0-.7.64v3.95a.71.71,0,0,1-.7.7H124.26c-.38,0-.7.21-.7.48s.32.47.7.47h39.81A.36.36,0,0,0,164.21,33.9ZM161.49,53a1.31,1.31,0,0,1,.61-1s1.2-.66,1.2-1.11V50.7a10,10,0,0,0-.92-.78l-3.11-2.25a.86.86,0,0,0-1.06.1l-1.56,1.65a1.84,1.84,0,0,1-1.18.51H131.3A3.33,3.33,0,0,1,130,49.6l-4.26-2.15a.41.41,0,0,0-.63.4V69.14c0,.39.23,1,.75,1a12.87,12.87,0,0,0,3.57-.28A.93.93,0,0,0,130,69l0-17.43a.7.7,0,0,1,.7-.7h25.25a.7.7,0,0,1,.7.7V64.79c0,.39,0,.71-.6.69l-4.79-.21c-.38,0-.7.07-.72.22s.19.37.65.45a4.28,4.28,0,0,1,2.16,1.14,5.42,5.42,0,0,1,.92,1,2.91,2.91,0,0,1,.33.63c.1.24.15.5.26.73a1.08,1.08,0,0,0,.51.58,1.39,1.39,0,0,0,.61.07c.52,0,1-.07,1.54-.15a9.29,9.29,0,0,0,1.89-.53,3.1,3.1,0,0,0,1.94-1.88,3.72,3.72,0,0,0,.17-1Zm28.45,6c-1.26-.53-5.59-1.67-5.59-1.67-.37-.09-.73-.1-.79,0s.1.39.36.67a27,27,0,0,1,4.22,6.08c.77,1.71,1.08,2,1.8,2,1.45,0,2.89-1.9,2.89-3.7C192.83,60.84,192,59.9,189.94,59Zm26.67-25-4.33-3.48a.76.76,0,0,0-1,.1L209,33.09a1.85,1.85,0,0,1-1.17.52h-6.31c-.39,0-.51-.25-.26-.55l1.15-1.54a2.13,2.13,0,0,1,1.07-.74s1.35-.33,1.35-.78S199,28.41,199,28.41a.73.73,0,0,0-.83.56l-1.29,4.48c-.17.46-.36.48-.84,0L193,30.8a.7.7,0,0,0-1,.1l-1.89,2.18a1.77,1.77,0,0,1-1.16.53h-4.15c-.39,0-.52-.26-.31-.58l1.06-1.71a1.75,1.75,0,0,1,1-.72s1.3-.24,1.3-.69-5.94-1.63-5.94-1.63a.75.75,0,0,0-.85.55,31.79,31.79,0,0,1-1.55,4.64A66.21,66.21,0,0,1,175.27,41c-.22.33-.3.66-.19.75s.46,0,.76-.27l7-6.41a1.83,1.83,0,0,1,1.17-.52h0a1.2,1.2,0,0,1,1,.64,21,21,0,0,1,1.46,5c.18,1,.45,1.39,1.08,1.39a3.41,3.41,0,0,0,3-3.06c0-1.18-4.35-3.59-4.35-3.59-.34-.18-.29-.34.09-.34h9.42a.44.44,0,0,1,.43.65L194.87,38a1.12,1.12,0,0,1-1,.55l-.26,0a.61.61,0,0,0-.69.63v2.83a.71.71,0,0,1-.7.7H181.14c-.39,0-.7.21-.7.47s.31.47.7.47h11a.7.7,0,0,1,.7.69v4.2a.7.7,0,0,1-.7.69H176.67c-.38,0-.7.21-.7.46s.32.47.7.47l23.8,0a.7.7,0,0,1,.7.7v3.56a.7.7,0,0,1-.7.7H177.26c-.38,0-.7.21-.7.47s.32.48.7.48h23.21a.7.7,0,0,1,.7.7V64c0,.57-.23,1-1,1l-6.25-.3c-.38,0-.71.08-.72.24s.28.38.65.49A22.74,22.74,0,0,1,198,67a3.19,3.19,0,0,1,1.09,2.3c0,.64.18.82.63.82A12.17,12.17,0,0,0,204.42,69a3.85,3.85,0,0,0,1.33-1.42,3.73,3.73,0,0,0,.29-1.33V56.61a.65.65,0,0,1,.7-.59h9c.27,0,.42-.24.1-.55-.17-.17-4-3.48-4-3.48a.74.74,0,0,0-1,.09l-2,2.45a1.64,1.64,0,0,1-1.14.54h-1a.72.72,0,0,1-.7-.78V50.81a.71.71,0,0,1,.7-.7h9.38c.37,0,.59-.33.17-.68L212,45.94a.78.78,0,0,0-1,.09l-2.32,2.6a1.7,1.7,0,0,1-1.15.53h-9.07a.69.69,0,0,1-.69-.69v-4.2a.69.69,0,0,1,.69-.69h14.39c.2,0,.38-.24.12-.45l-4.09-3.25a.81.81,0,0,0-1,.1l-2,2.14a1.84,1.84,0,0,1-1.17.51h-6.23a.7.7,0,0,1-.69-.7v-.68a1,1,0,0,1,.66-.92s1.05-.36,1.05-.77-3.32-.87-3.32-.87c-.38,0-.45-.27-.14-.5l3.55-3.14a2,2,0,0,1,1.19-.5H201a1.2,1.2,0,0,1,1,.64,18.7,18.7,0,0,1,1.28,4.19c.23,1.31.54,1.8,1.26,1.8a3.4,3.4,0,0,0,2.94-2.93c0-1.21-4.3-3.38-4.3-3.38-.34-.17-.31-.32.08-.32h13.25C216.79,34.55,216.89,34.23,216.61,34Zm-105.78-.83c0-.26-.31-.45-.7-.45H98.9c-.38,0-.69.2-.69.46s.31.48.69.48c2.48.14,3.5,1,4.23,2.29s1,2.91,1,6.56V61.8a.3.3,0,0,1-.53.18l-20-28.71a1.32,1.32,0,0,0-1.26-.55H74.09c-.39,0-.7.22-.7.48s.31.48.7.48h0c3.89.29,4.35,1.67,4.35,6.43V59.68c0,6.61-.67,8.61-4.8,8.81h0c-.38,0-.69.19-.69.45s.31.48.69.48H84.88c.38,0,.7-.21.7-.48s-.32-.45-.7-.45h0c-4.18-.24-5.1-2-5.1-8.41V37.16a.31.31,0,0,1,.53-.19l22.11,31.65a1.52,1.52,0,0,0,1.3.8h.87c.47,0,.85-.31.85-1V42.16c0-3.11.14-5,.86-6.22a4.31,4.31,0,0,1,3.88-2.29C110.54,33.62,110.83,33.46,110.83,33.17ZM247.3,37.49c1.58,0,3.25-2,3.25-3.83s-6.81-5-6.81-5c-.34-.16-.71-.2-.81-.09s0,.47.2.79a22.57,22.57,0,0,1,2.64,5.82C246.26,37.13,246.54,37.49,247.3,37.49Zm-9,.5c1.39,0,2.88-1.9,2.88-3.57,0-1.85-6.81-5-6.81-5-.34-.16-.69-.2-.76-.09s.05.46.26.78a23.19,23.19,0,0,1,2.89,6.1C237.2,37.53,237.61,38,238.33,38Zm25.26,12.32a.76.76,0,0,0-1,.1l-2.64,3a1.75,1.75,0,0,1-1.16.52h-8a.7.7,0,0,1-.7-.7V52a1.1,1.1,0,0,1,.66-.94s1-.31,1-.75c0-.28-.58-.58-.14-.78l7-3.1a3.14,3.14,0,0,1,1.17-.31c1.18,0,1.85-.22,1.85-.68a.64.64,0,0,0-.19-.4,8.6,8.6,0,0,0-.78-.72.27.27,0,0,1,0-.46l1.11-.68L265.19,41a2.84,2.84,0,0,1,1.26-.47s2-.18,2.08-.7c.05-.34-.09-.56-.43-.82l-4.28-3.24a.87.87,0,0,0-1.07,0l-1.83,1.75a2,2,0,0,1-1.19.49h-4.88c-.38,0-.44-.19-.13-.41l6.09-5a1.73,1.73,0,0,1,.92-.46c1.22,0,1.8-.23,1.85-.73a.48.48,0,0,0-.32-.49l-6.09-2.13a.72.72,0,0,0-.9.45l-3.55,8.14a1.28,1.28,0,0,1-1,.62h-18a.78.78,0,0,1-.76-.7l-.19-1.68c-.09-.72-.69-.81-.79-.3a13.73,13.73,0,0,1-.49,1.66,12.65,12.65,0,0,1-1.27,2.68,5.72,5.72,0,0,1-.93,1.15c-.68.63-1.72.85-2.2,1.69A3.12,3.12,0,0,0,227,45a2.79,2.79,0,0,0,1.73,1.94,2.2,2.2,0,0,0,1.85-.54,6.64,6.64,0,0,0,1.4-1.59,9.08,9.08,0,0,0,.88-3.48,15.68,15.68,0,0,0,.14-1.94c0-.27.12-.41.5-.41h26.67a.52.52,0,0,1,.53.67l-.91,3.18a.48.48,0,0,1-.79.24l-2.29-1.63a.87.87,0,0,0-1.07.1L254.24,43a1.88,1.88,0,0,1-1.19.5l-17.52,0c-.39,0-.7.21-.7.48s.31.47.7.47l17.39,0c.38,0,.5.25.28.56L250,48.84a1.45,1.45,0,0,1-1.17.39l-3.17-.45a.61.61,0,0,0-.7.62v3.81a.79.79,0,0,1-.84.69H227.48c-.38,0-.7.21-.7.46s.32.46.7.46l16.73,0a.7.7,0,0,1,.7.7V64c0,.63-.47.9-1.07.87L236,64.41c-.39,0-.7.09-.7.25s.31.36.68.46c0,0,4.64,1.14,5.49,1.85a3.4,3.4,0,0,1,1.27,2.35c.09.73.23.86.82.86a11.8,11.8,0,0,0,4.86-1.12,3.51,3.51,0,0,0,1.67-3.37V55.55a.7.7,0,0,1,.7-.7h17.37c.46,0,.63-.42.18-.78ZM314,61.52A21.08,21.08,0,0,1,309.36,59c-.28-.19-.31-.49,0-.85a39.34,39.34,0,0,0,4.23-7.39c.22-.48.42-.47.78-.49,1.09-.05,1.47-.21,1.46-.56,0-.56-3.92-2.32-5.5-3-.43-.19-.59,0-.78.62-.42,1.3-.7,2.07-1.11,3.16a38.45,38.45,0,0,1-2.53,5.06.47.47,0,0,1-.82,0,51.76,51.76,0,0,1-4.56-8.08c-.11-.26-.29-.32-.43-.25s-.81.35-1,.43-.2.27-.11.49c1,2.34,3.47,7.68,4.75,9.84a.54.54,0,0,1,0,.72,35.6,35.6,0,0,1-13.46,10.53c-.24.11-.17.66.2.58a33.21,33.21,0,0,0,8.78-3,27.55,27.55,0,0,0,6.81-4.83.52.52,0,0,1,.7,0A34.29,34.29,0,0,0,315,68.47a7.08,7.08,0,0,0,2.2.94c.28,0,.46-.18.55-.67a7.25,7.25,0,0,1,.58-1.67,6.71,6.71,0,0,1,3-3c.32-.17.2-.42,0-.45A27.5,27.5,0,0,1,314,61.52ZM295.68,37.28c-.39,0-.71-.21-.71-.46s.32-.47.71-.47h7.25a.7.7,0,0,0,.7-.7V29.52a.5.5,0,0,1,.55-.63s3.63.41,5.32.71c.68.12.82.28.8.49-.06.4-1.16.85-1.16.85a1.15,1.15,0,0,0-.64,1v3.74a.69.69,0,0,0,.69.7h3.21a1.71,1.71,0,0,0,1.14-.54l2.1-2.61a.69.69,0,0,1,1-.11l4.13,3.57a.35.35,0,0,1-.25.64ZM299,39.45a.68.68,0,0,1,.88-.41s5.4,2,5.4,2.5-.64.64-1.54.64h-.09a1.51,1.51,0,0,0-.88.51s-6.71,5.93-10.22,8.39c-.24.17-.48.14-.57,0s-.07-.23.18-.53A50.3,50.3,0,0,0,297,43.76,31.35,31.35,0,0,0,299,39.45Zm18.18,2.82c1.89,1.17,2.44,2,2.44,3.52,0,1.89-.95,3.6-2,3.6-.64,0-1-.36-1.85-1.8C314,44.47,309.1,40,309.1,40c-.28-.26-.47-.57-.42-.68s.39-.11.76,0C309.44,39.31,315.26,41.09,317.2,42.27Zm-26.33,5a13,13,0,0,0-1.5-4.09c-.2-.33-.35-.29-.35.1V68.81c0,.39-.07,1-.52,1.1a19.38,19.38,0,0,1-3.38.2c-.5,0-.48-.83-.48-1.47v-18c0-.38-.13-.41-.31-.07a97.54,97.54,0,0,1-5.78,8.94c-.23.31-.56.47-.69.38s-.12-.44.05-.79c.32-.64.6-1.3.89-2,.83-1.89,1.62-3.79,2.31-5.73A60.27,60.27,0,0,0,283,45.13c.25-1.07.47-2.15.67-3.23l.27-1.63c.05-.38-.12-.79-.56-.79h-4.28c-.38,0-.7-.22-.7-.48s.32-.48.7-.48h4.58a.71.71,0,0,0,.71-.7V29.28a.6.6,0,0,1,.69-.62s3.18.43,4.83.76c.61.13,1,.24.93.49s-.8.59-1.07.72a1.31,1.31,0,0,0-.64,1l0,6.34c0,.31.16.58.46.58h.13c.21,0,.48-.36.62-.56l1.52-2.08a.61.61,0,0,1,.93-.08s2.88,2.94,3,3.08.17.59-.24.59h-5.76a.7.7,0,0,0-.7.7v.9a1.16,1.16,0,0,0,.64,1l1.92,1a10.05,10.05,0,0,1,1.14.79s1.22,1,1.22,1.77c0,1.4-1.17,3.07-2.17,3.07C291.27,48.67,291,48.27,290.87,47.23Z"/><path class="cls-1" d="M405,52.46h0Z"/><path class="cls-1" d="M423.35,63V57.3a.75.75,0,0,1,.36-.73l.76-.5a.49.49,0,0,0,0-.81l-3.19-2.4a.9.9,0,0,0-1.08.08l-1.38,1.33a2,2,0,0,1-1.2.49h-6.81a3.64,3.64,0,0,1-1.33-.31l-3.73-1.67a.43.43,0,0,0-.64.43V65.15A.86.86,0,0,0,406,66c.42,0,2.55-.09,3-.18a.82.82,0,0,0,.72-.84V63.62a.7.7,0,0,1,.7-.7h7.67c.38,0,.69.2.69.45V64c0,.34.43.54.75.53,1.26,0,2.76-.14,2.76-.14C423.35,64.25,423.35,63.71,423.35,63Zm-4.61-1.74a.69.69,0,0,1-.69.7h-7.67a.7.7,0,0,1-.7-.7V56.4a.7.7,0,0,1,.7-.7h7.67a.7.7,0,0,1,.69.7Z"/><path class="cls-1" d="M423.94,36.27a1,1,0,0,0-1.11.11l-1.32,1.35a1.78,1.78,0,0,1-1.17.52H408.39a3.63,3.63,0,0,1-1.33-.3L403,36.22a.44.44,0,0,0-.65.44V47.33a.81.81,0,0,0,.72.82,23.6,23.6,0,0,0,3.39-.3.9.9,0,0,0,.4-.13c.29-.22.2-.79.25-1.12a.77.77,0,0,1,.78-.55h12.67a.76.76,0,0,1,.7.72v.56A.75.75,0,0,0,422,48c1.39,0,3.14-.11,3.14-.11a1,1,0,0,0,1.05-1.11V40.56c0-.32.21-.42.46-.65s.42-.37.74-.63.29-.51-.11-.78S423.94,36.27,423.94,36.27Zm-2.67,8.14a.71.71,0,0,1-.7.7H407.9a.7.7,0,0,1-.7-.7V39.9a.7.7,0,0,1,.7-.7h12.67a.7.7,0,0,1,.7.7Z"/><path class="cls-1" d="M435.17,33.9l-4.77-3.75a.79.79,0,0,0-1,.1l-2.5,2.83a1.74,1.74,0,0,1-1.16.53h-8.25a.7.7,0,0,1-.7-.7V31.47a1.23,1.23,0,0,1,.62-1s1.09-.55,1.09-.87c0-.58-1.17-.9-3.92-1.08-.68,0-2.32-.19-2.32-.19a.63.63,0,0,0-.7.64v3.95a.71.71,0,0,1-.7.7H395.22c-.38,0-.7.21-.7.48s.32.47.7.47H435A.36.36,0,0,0,435.17,33.9Z"/><path class="cls-1" d="M432.45,53a1.31,1.31,0,0,1,.61-1s1.2-.66,1.2-1.11V50.7a10,10,0,0,0-.92-.78l-3.11-2.25a.86.86,0,0,0-1.06.1l-1.56,1.65a1.84,1.84,0,0,1-1.18.51H402.26A3.33,3.33,0,0,1,401,49.6l-4.26-2.15a.41.41,0,0,0-.63.4V69.14c0,.39.23,1,.75,1a12.87,12.87,0,0,0,3.57-.28A.93.93,0,0,0,401,69l0-17.43a.7.7,0,0,1,.7-.7h25.25a.7.7,0,0,1,.7.7V64.79c0,.39,0,.71-.6.69l-4.79-.21c-.38,0-.7.07-.72.22s.19.37.65.45a4.28,4.28,0,0,1,2.16,1.14,5.42,5.42,0,0,1,.92,1,2.91,2.91,0,0,1,.33.63c.1.24.15.5.26.73a1.08,1.08,0,0,0,.51.58,1.39,1.39,0,0,0,.61.07c.52,0,1-.07,1.54-.15a9.29,9.29,0,0,0,1.89-.53,3.1,3.1,0,0,0,1.94-1.88,3.72,3.72,0,0,0,.17-1Z"/><path class="cls-1" d="M460.9,59c-1.26-.53-5.59-1.67-5.59-1.67-.37-.09-.73-.1-.79,0s.1.39.36.67a27,27,0,0,1,4.22,6.08c.77,1.71,1.08,2,1.8,2,1.45,0,2.89-1.9,2.89-3.7C463.79,60.84,463,59.9,460.9,59Z"/><path class="cls-1" d="M487.57,34l-4.33-3.48a.76.76,0,0,0-1,.1L480,33.09a1.85,1.85,0,0,1-1.17.52h-6.31c-.39,0-.51-.25-.26-.55l1.15-1.54a2.13,2.13,0,0,1,1.07-.74s1.35-.33,1.35-.78S470,28.41,470,28.41a.73.73,0,0,0-.83.56l-1.29,4.48c-.17.46-.36.48-.84,0l-3.1-2.69a.7.7,0,0,0-1,.1l-1.89,2.18a1.77,1.77,0,0,1-1.16.53h-4.15c-.39,0-.52-.26-.31-.58l1.06-1.71a1.75,1.75,0,0,1,1-.72s1.3-.24,1.3-.69-5.94-1.63-5.94-1.63a.75.75,0,0,0-.85.55,31.79,31.79,0,0,1-1.55,4.64A66.21,66.21,0,0,1,446.23,41c-.22.33-.3.66-.19.75s.46,0,.76-.27l7.05-6.41a1.83,1.83,0,0,1,1.17-.52h0a1.2,1.2,0,0,1,1,.64,21,21,0,0,1,1.46,5c.18,1,.45,1.39,1.08,1.39a3.41,3.41,0,0,0,3-3.06c0-1.18-4.35-3.59-4.35-3.59-.34-.18-.29-.34.09-.34h9.42a.44.44,0,0,1,.43.65L465.83,38a1.12,1.12,0,0,1-1,.55l-.26,0a.61.61,0,0,0-.69.63v2.83a.71.71,0,0,1-.7.7H452.1c-.39,0-.7.21-.7.47s.31.47.7.47h11a.7.7,0,0,1,.7.69v4.2a.7.7,0,0,1-.7.69H447.63c-.38,0-.7.21-.7.46s.32.47.7.47l23.8,0a.7.7,0,0,1,.7.7v3.56a.7.7,0,0,1-.7.7H448.22c-.38,0-.7.21-.7.47s.32.48.7.48h23.21a.7.7,0,0,1,.7.7V64c0,.57-.23,1-1,1l-6.25-.3c-.38,0-.71.08-.72.24s.28.38.65.49A22.74,22.74,0,0,1,469,67a3.19,3.19,0,0,1,1.09,2.3c0,.64.18.82.63.82A12.17,12.17,0,0,0,475.38,69a3.85,3.85,0,0,0,1.33-1.42,3.73,3.73,0,0,0,.29-1.33V56.61a.65.65,0,0,1,.7-.59h9.05c.27,0,.42-.24.1-.55s-4-3.48-4-3.48a.74.74,0,0,0-1,.09l-2,2.45a1.64,1.64,0,0,1-1.14.54h-1a.72.72,0,0,1-.7-.78V50.81a.71.71,0,0,1,.7-.7h9.38c.37,0,.59-.33.17-.68L483,45.94a.78.78,0,0,0-1,.09l-2.32,2.6a1.7,1.7,0,0,1-1.15.53H469.4a.69.69,0,0,1-.69-.69v-4.2a.69.69,0,0,1,.69-.69h14.39c.2,0,.38-.24.12-.45l-4.09-3.25a.81.81,0,0,0-1,.1l-2,2.14a1.84,1.84,0,0,1-1.17.51H469.4a.7.7,0,0,1-.69-.7v-.68a1,1,0,0,1,.66-.92s1.05-.36,1.05-.77-3.32-.87-3.32-.87c-.38,0-.45-.27-.14-.5l3.55-3.14a2,2,0,0,1,1.19-.5H472a1.2,1.2,0,0,1,1,.64,18.7,18.7,0,0,1,1.28,4.19c.23,1.31.54,1.8,1.26,1.8a3.4,3.4,0,0,0,2.94-2.93c0-1.21-4.3-3.38-4.3-3.38-.34-.17-.31-.32.08-.32h13.25C487.75,34.55,487.85,34.23,487.57,34Z"/><path class="cls-1" d="M518.26,37.49c1.58,0,3.25-2,3.25-3.83s-6.81-5-6.81-5c-.34-.16-.71-.2-.81-.09s0,.47.2.79a22.57,22.57,0,0,1,2.64,5.82C517.22,37.13,517.5,37.49,518.26,37.49Z"/><path class="cls-1" d="M509.29,38c1.39,0,2.88-1.9,2.88-3.57,0-1.85-6.81-5-6.81-5-.34-.16-.69-.2-.76-.09s0,.46.26.78a23.19,23.19,0,0,1,2.89,6.1C508.16,37.53,508.57,38,509.29,38Z"/><path class="cls-1" d="M534.55,50.31a.76.76,0,0,0-1,.1l-2.64,3a1.75,1.75,0,0,1-1.16.52h-8a.7.7,0,0,1-.7-.7V52a1.1,1.1,0,0,1,.66-.94s1.05-.31,1-.75c0-.28-.58-.58-.14-.78l7-3.1a3.14,3.14,0,0,1,1.17-.31c1.18,0,1.85-.22,1.85-.68a.64.64,0,0,0-.19-.4,8.6,8.6,0,0,0-.78-.72.27.27,0,0,1,0-.46l1.11-.68L536.15,41a2.84,2.84,0,0,1,1.26-.47s2-.18,2.08-.7c0-.34-.09-.56-.43-.82l-4.28-3.24a.87.87,0,0,0-1.07,0l-1.83,1.75a2,2,0,0,1-1.19.49h-4.88c-.38,0-.44-.19-.13-.41l6.09-5a1.73,1.73,0,0,1,.92-.46c1.22,0,1.8-.23,1.85-.73a.48.48,0,0,0-.32-.49l-6.09-2.13a.72.72,0,0,0-.9.45l-3.55,8.14a1.28,1.28,0,0,1-1,.62h-18a.78.78,0,0,1-.76-.7l-.19-1.68c-.09-.72-.69-.81-.79-.3a13.73,13.73,0,0,1-.49,1.66,12.65,12.65,0,0,1-1.27,2.68,5.72,5.72,0,0,1-.93,1.15c-.68.63-1.72.85-2.2,1.69A3.12,3.12,0,0,0,498,45a2.79,2.79,0,0,0,1.73,1.94,2.2,2.2,0,0,0,1.85-.54,6.64,6.64,0,0,0,1.4-1.59,9.08,9.08,0,0,0,.88-3.48,15.68,15.68,0,0,0,.14-1.94c0-.27.12-.41.5-.41h26.67a.52.52,0,0,1,.53.67l-.91,3.18a.48.48,0,0,1-.79.24l-2.29-1.63a.87.87,0,0,0-1.07.1L525.2,43a1.88,1.88,0,0,1-1.19.5l-17.52,0c-.39,0-.7.21-.7.48s.31.47.7.47l17.39,0c.38,0,.5.25.28.56l-3.25,3.85a1.45,1.45,0,0,1-1.17.39l-3.17-.45a.61.61,0,0,0-.7.62v3.81a.79.79,0,0,1-.84.69H498.44c-.38,0-.7.21-.7.46s.32.46.7.46l16.73,0a.7.7,0,0,1,.7.7V64c0,.63-.47.9-1.07.87l-7.87-.45c-.39,0-.7.09-.7.25s.31.36.68.46c0,0,4.64,1.14,5.49,1.85a3.4,3.4,0,0,1,1.27,2.35c.09.73.23.86.82.86a11.8,11.8,0,0,0,4.86-1.12A3.51,3.51,0,0,0,521,65.69V55.55a.7.7,0,0,1,.7-.7h17.37c.46,0,.63-.42.18-.78Z"/><path class="cls-1" d="M373,41.27a14.18,14.18,0,0,0-2.22-5.52,9.16,9.16,0,0,0-7.74-3.82,6.8,6.8,0,0,0-5.36,2.46,7.23,7.23,0,0,0-1.54,4.53,5.82,5.82,0,0,0,1.62,4.4A18.75,18.75,0,0,0,364,47.45c4.84,2.27,6.76,3.36,8.56,5a9.71,9.71,0,0,1,3,7.21,8.71,8.71,0,0,1-3.12,7.27,12.67,12.67,0,0,1-8.69,2.84,44.57,44.57,0,0,1-6.71-1,10.67,10.67,0,0,0-2-.34,5,5,0,0,0-1.43.17,4.46,4.46,0,0,0-1,.5l-.32.17a.39.39,0,0,1-.43,0,.47.47,0,0,1-.17-.37v-10c0-.31.1-.55.43-.57a.48.48,0,0,1,.5.48,10.39,10.39,0,0,0,3.13,6.81,10.86,10.86,0,0,0,7.89,2.94c3.3,0,5.51-1.44,6.7-3.86a7.82,7.82,0,0,0,.67-3.51c0-3.6-2.16-6-9.27-9.49-4.58-2.21-5.79-3-7.38-4.51a9,9,0,0,1-2.62-6.37,9.5,9.5,0,0,1,3.3-7.39,11,11,0,0,1,7.77-2.63,23,23,0,0,1,6.25.93,13,13,0,0,0,1.38.3,3.23,3.23,0,0,0,1.77-.14c.35-.14.64-.34,1-.51a1,1,0,0,1,.43-.14.37.37,0,0,1,.36.42v9.43c0,.42-.15.71-.48.7S373.08,41.56,373,41.27Z"/><path class="cls-1" d="M592.31,63.64c.2,0,.32.28,0,.45a6.71,6.71,0,0,0-3,3,7.25,7.25,0,0,0-.58,1.67c-.09.49-.27.67-.55.67a7.08,7.08,0,0,1-2.2-.94,34.29,34.29,0,0,1-8.28-6.41.52.52,0,0,0-.7,0,27.55,27.55,0,0,1-6.81,4.83,33.21,33.21,0,0,1-8.78,3c-.37.08-.44-.47-.2-.58a35.6,35.6,0,0,0,13.46-10.53.54.54,0,0,0,0-.72c-1.28-2.16-3.76-7.5-4.75-9.84-.09-.22,0-.42.11-.49s.81-.37,1-.43.32,0,.43.25A51.76,51.76,0,0,0,576,55.59a.47.47,0,0,0,.82,0,38.45,38.45,0,0,0,2.53-5.06c.41-1.09.69-1.86,1.11-3.16.19-.59.35-.81.78-.62,1.58.69,5.5,2.45,5.5,3,0,.35-.37.51-1.46.56-.36,0-.56,0-.78.49a39.34,39.34,0,0,1-4.23,7.39c-.28.36-.25.66,0,.85A21.08,21.08,0,0,0,585,61.52,27.5,27.5,0,0,0,592.31,63.64Zm-.86-26.33a.35.35,0,0,0,.25-.64l-4.13-3.57a.69.69,0,0,0-1,.11l-2.1,2.61a1.71,1.71,0,0,1-1.14.54h-3.21a.69.69,0,0,1-.69-.7V31.92a1.15,1.15,0,0,1,.64-1s1.1-.45,1.16-.85c0-.21-.12-.37-.8-.49-1.69-.3-5.32-.71-5.32-.71a.5.5,0,0,0-.55.63v6.14a.7.7,0,0,1-.7.7h-7.25c-.39,0-.71.21-.71.47s.32.46.71.46ZM568,43.76a50.3,50.3,0,0,1-4.86,6.81c-.25.3-.25.44-.18.53s.33.15.57,0c3.51-2.46,10.22-8.39,10.22-8.39a1.51,1.51,0,0,1,.88-.51h.09c.9,0,1.54-.27,1.54-.64s-5.4-2.5-5.4-2.5a.68.68,0,0,0-.88.41A31.35,31.35,0,0,1,568,43.76Zm12.4-4.45c-.37-.11-.71-.11-.76,0s.14.42.42.68c0,0,4.85,4.48,6.66,7.6.81,1.44,1.21,1.8,1.85,1.8,1.08,0,2-1.71,2-3.6,0-1.54-.55-2.35-2.44-3.52S580.4,39.31,580.4,39.31Zm-17.63,9.36c1,0,2.17-1.67,2.17-3.07,0-.81-1.22-1.77-1.22-1.77a10.05,10.05,0,0,0-1.14-.79l-1.92-1a1.16,1.16,0,0,1-.64-1v-.9a.7.7,0,0,1,.7-.7h5.76c.41,0,.51-.31.24-.59s-3-3.08-3-3.08a.61.61,0,0,0-.93.08L561.24,38c-.14.2-.41.56-.62.56h-.13c-.3,0-.46-.27-.46-.58l0-6.34a1.31,1.31,0,0,1,.64-1c.27-.13,1-.46,1.07-.72s-.32-.36-.93-.49c-1.65-.33-4.83-.76-4.83-.76a.6.6,0,0,0-.69.62v8.54a.71.71,0,0,1-.71.7H550c-.38,0-.7.22-.7.48s.32.48.7.48h4.28c.44,0,.61.41.56.79l-.27,1.63c-.2,1.08-.42,2.16-.67,3.23a60.27,60.27,0,0,1-1.87,6.32c-.69,1.94-1.48,3.84-2.31,5.73-.29.65-.57,1.31-.89,2-.17.35-.19.7,0,.79s.46-.07.69-.38a97.54,97.54,0,0,0,5.78-8.94c.18-.34.31-.31.31.07v18c0,.64,0,1.44.48,1.47a19.38,19.38,0,0,0,3.38-.2c.45-.1.52-.71.52-1.1V43.24c0-.39.15-.43.35-.1a13,13,0,0,1,1.5,4.09C561.91,48.27,562.23,48.67,562.77,48.67Z"/><circle class="cls-1" cx="335.78" cy="49.73" r="2.71"/><path class="cls-1" d="M420.6,79.77a4,4,0,0,0,.9.11h2l.73-.86c.51.39.67.52,1.17.93a.22.22,0,0,1,.07.1s-.05.07-.13.07h-3.89a3.06,3.06,0,0,0-.77.08Zm.33-1.48a3.86,3.86,0,0,0,.81.09h1.43l.7-.82c.48.38.62.5,1.08.89a.8.8,0,0,1,.05.11s-.05.07-.12.07h-3.17a3.41,3.41,0,0,0-.71.06Zm.09,3a4.25,4.25,0,0,0,.81.09h1.3c.36-.42.36-.42.72-.8.47.37.61.49,1,.87.05,0,.06.08.06.11s0,.07-.13.07h-3a3.26,3.26,0,0,0-.71.07Zm0,1.5a4.25,4.25,0,0,0,.8.1h1.21c.3-.36.39-.47.7-.82a12.54,12.54,0,0,1,1.05.88c.05,0,.07.08.07.11s-.05.07-.13.07h-2.91a4.85,4.85,0,0,0-.71.06Zm1.22,5.32c0,.21-.14.26-.8.26-.33,0-.4,0-.4-.24.05-1.34.05-1.61.05-2.44s0-.85-.05-1.9c.57.28.75.37,1.31.68h1.05c.25-.31.32-.4.56-.68a10.92,10.92,0,0,1,.89.68c.1.09.14.15.14.21s-.08.16-.37.33c0,.73,0,1.58,0,2.54,0,.14,0,.2-.15.24a2.89,2.89,0,0,1-.69.09c-.29,0-.36,0-.36-.24v-.2h-1.21Zm0-.91h1.21V84.69h-1.21Zm9.45-.36a1.7,1.7,0,0,0-1,1.27.12.12,0,0,1-.13.1,1.72,1.72,0,0,1-.44-.16A8,8,0,0,1,428,86.51a9.56,9.56,0,0,1-3.94,1.93l0-.15a11.33,11.33,0,0,0,3.34-2.51A7.18,7.18,0,0,1,426.09,83a4.29,4.29,0,0,0-.75.08l-.08-.42a5.58,5.58,0,0,0,.93.09H429c.27-.3.35-.38.63-.66.49.36.64.46,1.11.84.12.09.15.15.15.2s-.12.16-.53.28a11.3,11.3,0,0,1-1.6,2.39,7,7,0,0,0,3,.86Zm-7-4.26a3.37,3.37,0,0,0,1-1.74,9.67,9.67,0,0,0,.24-2.23,7.47,7.47,0,0,0-.07-1c.61.3.8.39,1.39.72h1.09c.25-.3.33-.39.61-.68.4.3.52.41.9.71.09.08.13.14.13.19s-.08.16-.41.32v1.89c0,.17,0,.18.37.18s.44,0,.53-.17a8.87,8.87,0,0,0,.56-1.66h.13l-.05,1.44v.09c0,.08,0,.12.14.18a.45.45,0,0,1,.34.46.55.55,0,0,1-.34.52A3.62,3.62,0,0,1,430,82a3.35,3.35,0,0,1-1.33-.12c-.18-.08-.26-.25-.26-.52v-.38c0-.26,0-.42,0-.45v-1.9h-1.26c-.06,1.58-.19,2.15-.63,2.77a4.48,4.48,0,0,1-1.74,1.3Zm1.6.44a5,5,0,0,0,1.53,2.18,8.87,8.87,0,0,0,1.2-2.18Z"/><path class="cls-1" d="M444.33,81.22c0,.14-.05.25-.06.32s-.08.35-.18.76h1.75c.26-.27.34-.37.61-.62.42.28.55.36.94.65.09.08.14.13.14.2s-.07.14-.37.3V84c0,1.48,0,2.24,0,2.81a.29.29,0,0,1-.08.21,1.55,1.55,0,0,1-.75.1c-.38,0-.44,0-.44-.21v-.23h-3.55v.26c0,.22-.14.27-.82.27-.42,0-.48,0-.48-.27,0-1.21.05-2.2.05-3,0-1.1,0-1.55-.06-2.19a9.66,9.66,0,0,1,1.35.59h.45c.16-.69.16-.72.23-1.08H439a3.53,3.53,0,0,0-.9.07l-.07-.41a4.35,4.35,0,0,0,.93.1h4.2c.06-.27.08-.44.15-.89h-3.18v.18c0,.21-.13.25-.78.25-.42,0-.49,0-.49-.25,0-.71,0-1.08,0-1.55s0-.68,0-1.17c.6.24.79.31,1.36.58h6.32c.3-.28.38-.38.66-.62.38.25.5.34.86.6.13.09.18.14.18.21s-.06.12-.4.32V79c0,.31,0,.64,0,1.12,0,.11,0,.15-.14.22.49.35.56.4,1,.75a.18.18,0,0,1,.06.1s-.06.06-.13.06ZM440,88.16c0,.22-.1.26-.83.26-.42,0-.47,0-.47-.26,0-1.22.05-1.85.05-3.47a18.83,18.83,0,0,0-.09-2.83c1.6.14,1.78.18,1.78.34s-.13.19-.44.28v5.11h6.6c.42-.42.55-.55.95-.91a14.21,14.21,0,0,1,1.22.95c0,.06.07.1.07.13s0,.07-.13.07H440Zm.13-9.79v1.47h1.35V78.37Zm5.81,4.17h-3.55v1h3.55Zm-3.55,1.3V85h3.55V83.84Zm0,1.36v1.18h3.55V85.2Zm.25-5.36H444V78.37h-1.38ZM446.83,81l.59-.61h-.37c-.36,0-.43,0-.43-.18v-.11h-2.06c-.09.48-.09.48-.18.89Zm-1.63-1.14h1.42V78.37H445.2Z"/><path class="cls-1" d="M455.15,79.78a4.94,4.94,0,0,0,.88.1H458c.31-.38.41-.48.72-.84.52.37.66.49,1.13.88q.09.09.09.12s-.06.08-.14.08H456a4,4,0,0,0-.81.07Zm.28,1.51a3.59,3.59,0,0,0,.84.09h1.37c.28-.36.37-.46.67-.8a13.24,13.24,0,0,1,1.08.87.15.15,0,0,1,.06.11s-.06.07-.12.07h-3.09a3.84,3.84,0,0,0-.73.06Zm.07,1.51a3.51,3.51,0,0,0,.78.09h1.36c.27-.36.35-.47.63-.8.47.36.61.47,1.06.87a.15.15,0,0,1,.06.11s-.06.07-.14.07h-3a3.39,3.39,0,0,0-.69.06Zm0-4.52a3.35,3.35,0,0,0,.83.09h1.29c.32-.38.41-.5.74-.86a13.9,13.9,0,0,1,1.07.92s.07.08.07.12,0,.07-.14.07h-3a4.9,4.9,0,0,0-.77,0Zm1.31,9.81c0,.27-.14.33-.76.33-.38,0-.45,0-.45-.26,0-.79,0-1.45,0-2.5,0-.89,0-1.14-.05-1.88.57.28.75.37,1.32.7h.91l.6-.68c.38.28.5.36.85.65.09.08.13.14.13.19s-.09.18-.37.34v.56c0,.37,0,2,0,2.35,0,.12,0,.16-.05.21s-.31.14-.73.14-.38,0-.39-.23v-.39h-1.08Zm0-.71h1.08V84.73h-1.08Zm3.1-7.91,1.39.17a7,7,0,0,0,.09-1.07h-.74a4.75,4.75,0,0,0-.84.06l-.08-.4a4.6,4.6,0,0,0,.91.09h3.45l.68-.66a11,11,0,0,1,.95.77c.08.07.1.1.1.16s-.07.17-.36.32c-.15,2.47-.29,3.28-.65,3.71a1.63,1.63,0,0,1-1.29.49c-.13,0-.15,0-.17-.14a.88.88,0,0,0-.31-.53c-.16-.14-.26-.18-1-.39l0-.16c.85.09,1.2.13,1.48.13s.39-.1.49-.51a16.33,16.33,0,0,0,.27-2.94h-1.69a8.23,8.23,0,0,1-.18,1.3l.17,0a1,1,0,0,1,.63.31.79.79,0,0,1,.21.56c0,.32-.14.6-.32.6s-.16,0-.29-.17a4.88,4.88,0,0,0-.64-.49,4.91,4.91,0,0,1-3,2.87l-.07-.1A5.85,5.85,0,0,0,460.5,82a6.07,6.07,0,0,0,.74-1.85,7.77,7.77,0,0,0-1.32-.58Zm.53,4.86a5.56,5.56,0,0,1,.1,1.06c0,1.13-.42,2.08-.92,2.08a.47.47,0,0,1-.38-.31,1.71,1.71,0,0,1-.12-.54.84.84,0,0,1,.38-.6,2.26,2.26,0,0,0,.8-1.7Zm.57.66a8.25,8.25,0,0,0-.06-1c1.44.13,1.56.16,1.56.31s-.07.14-.35.26v2.26c0,.22,0,.22.67.22.4,0,.54,0,.62-.17a9,9,0,0,0,.61-1.67h.12l-.05,1.46h0a.21.21,0,0,0,.18.23.48.48,0,0,1,.36.48c0,.32-.21.54-.59.62a9,9,0,0,1-1.61.08c-1.21,0-1.42-.09-1.47-.66v-.28c0-.06,0-.06,0-.94Zm.52-2c1.86.42,2.31.64,2.31,1.17s-.28.88-.54.88-.19-.07-.4-.42a3.9,3.9,0,0,0-1.43-1.53Zm2.89,1.31a4.58,4.58,0,0,1,1.46,1.23,1.24,1.24,0,0,1,.31.73c0,.48-.42,1.07-.76,1.07s-.28-.17-.33-.55a9.81,9.81,0,0,0-.33-1.5,3.7,3.7,0,0,0-.43-.9Z"/><path class="cls-1" d="M481.83,83.76v3.17a1,1,0,0,1-.39.94,2.9,2.9,0,0,1-1.51.41c-.17,0-.21,0-.22-.18a1,1,0,0,0-.42-.7,4.89,4.89,0,0,0-1.73-.56V86.7c1.34.08,1.7.09,2.7.09.17,0,.21,0,.21-.2v-7.8h-6.84a6.35,6.35,0,0,0-1.05.07l-.06-.43a5,5,0,0,0,1.11.12h7.56c.39-.46.5-.59.89-1,.6.44.77.58,1.35,1.06.06.06.09.09.09.13s-.06.08-.16.08h-1.56Zm-6.57,1.67c0,.14,0,.2-.1.24a1.87,1.87,0,0,1-.87.13c-.28,0-.37-.06-.37-.25v-.07c.05-1.07.06-2.18.06-3.86,0-.56,0-1-.06-1.72a15.66,15.66,0,0,1,1.47.77h1.95l.69-.75c.43.3.56.4,1,.72.09.09.14.15.14.2s-.07.15-.38.32c0,1.84,0,2.58,0,3.9a.21.21,0,0,1-.17.24,4.12,4.12,0,0,1-.8.09c-.29,0-.37,0-.37-.24v-.63h-2.19Zm0-1.16h2.19V80.92h-2.19Z"/><path class="cls-1" d="M495.76,84.87c0,1,0,2.11.05,3.22,0,.29-.12.34-.88.34-.5,0-.57,0-.57-.28.06-2.69.06-2.69.06-3.28h-2.48v.56c0,.29-.11.34-.8.34-.51,0-.58,0-.58-.25v0c.05-2.2.06-2.44.06-3.75s0-1.92-.07-2.81a12.47,12.47,0,0,1,1.54.81h2.32a20.75,20.75,0,0,0-.07-2.14l.88.09c.85.08,1,.12,1,.27s-.13.2-.48.33v1.45h2.47l.71-.79c.45.31.58.4,1,.73.11.09.15.15.15.21s-.09.16-.42.32c0,3.23,0,3.23.06,5.18,0,.29-.14.34-.9.34-.42,0-.5,0-.5-.27v-.58ZM494.41,80h-2.47v2.15h2.48Zm0,2.4h-2.48v2.25h2.48Zm3.9-2.4h-2.57v2.15h2.57Zm0,2.4h-2.57v2.25h2.56Z"/><path class="cls-1" d="M507,79.78a3.66,3.66,0,0,0,.81.1h1.78c.34-.38.45-.49.8-.86.5.39.65.52,1.13.94,0,.05.06.07.06.09s-.06.07-.13.07h-3.68a2.69,2.69,0,0,0-.7.07Zm.3,3a3.19,3.19,0,0,0,.73.08h1.27l.7-.82c.47.37.61.48,1,.86a.17.17,0,0,1,.08.13s-.05.08-.15.08h-2.94a3.48,3.48,0,0,0-.66.06Zm2.05-1.4.7-.82c.48.37.62.49,1.07.89a.16.16,0,0,1,.06.08.16.16,0,0,1,0,.08,3.8,3.8,0,0,0,.84.08h1.72V80.54h-1.21a5.36,5.36,0,0,0-.71.06l-.08-.38a4.15,4.15,0,0,0,.79.08h1.21V79.18h-1.5a3.24,3.24,0,0,0-.74.07l-.08-.4a3.68,3.68,0,0,0,.82.08h1.5v-.28a8.68,8.68,0,0,0-.07-1.07l.82.07c.74,0,.94.09.94.23s-.13.19-.46.29v.76h1c.31-.37.41-.49.73-.83.49.38.63.49,1.08.88.05.06.07.08.07.11s-.06.09-.14.09H515V80.3h.89c.31-.35.4-.46.71-.78a10.4,10.4,0,0,1,1,.85.22.22,0,0,1,.06.1s-.06.07-.12.07H515v1.18h1.24l.76-.83c.49.38.63.49,1.09.88,0,.06.07.09.07.13s0,.07-.11.07h-6a3.05,3.05,0,0,0-.79.08l-.08-.41h-3.05a3.49,3.49,0,0,0-.7.06l-.07-.38a5,5,0,0,0,.78.08Zm-2-3.16a2.78,2.78,0,0,0,.73.1h1.2l.79-.86c.49.39.64.52,1.1.94,0,0,0,.07,0,.09s0,.07-.1.07h-3a3,3,0,0,0-.66.06Zm1.25,9.85c0,.23-.17.29-.83.29-.3,0-.37,0-.37-.24.05-1.11.05-1.33.05-2.14,0-1,0-1.52-.06-2.18a10,10,0,0,1,1.31.66h.87a7,7,0,0,1,.59-.63l.87.64c.09.09.12.13.12.19s-.09.18-.35.33c0,1.67,0,1.71.05,2.89,0,.27-.16.34-.83.34-.31,0-.37,0-.38-.21v-.42h-1Zm0-.72h1.06V84.74h-1.06ZM513,85.82v.62c0,.34,0,.45,0,1.64,0,.25-.15.31-.79.31-.37,0-.43,0-.44-.22,0-1.38.05-2.07.05-3.34,0-1.1,0-1.65-.05-2.62l1.35.66h2.57a7.31,7.31,0,0,1,.6-.64,11,11,0,0,1,.93.66c.09.08.13.14.13.19s-.09.17-.37.35v2.49c0,.09,0,.37,0,.79,0,.13,0,.34,0,.6a.77.77,0,0,1-.22.65,1.78,1.78,0,0,1-1.06.41l-.26,0c-.13,0-.16,0-.17-.14a.85.85,0,0,0-.34-.64c-.16-.13-.25-.16-1-.38v-.16c.92.06,1.12.07,1.69.07.11,0,.13,0,.13-.14V85.82Zm2.79-2.71H513V84.2h2.79Zm0,1.34H513v1.13h2.79Z"/><path class="cls-1" d="M530.35,84.09v.37c0,1.08,0,2.57,0,3.58,0,.29-.15.35-.91.35-.51,0-.57,0-.57-.29.05-1.53.05-1.94.06-4h-2.53v.62c0,.28-.14.33-.83.33-.5,0-.56,0-.56-.29.06-2,.06-2.08.06-3.06s0-1.42-.06-2.17a13.54,13.54,0,0,1,1.62.8H529a15.68,15.68,0,0,0-.1-2.65l.87.06c.89.07,1.1.13,1.1.28s-.13.19-.52.3v2h2.56l.73-.79,1,.7c.13.1.17.17.17.25s-.09.19-.4.36c0,1.84,0,2.33.07,3.83,0,.31-.14.37-.94.37-.41,0-.47,0-.47-.26v-.69ZM529,82.7V80.57h-2.54v3.28H529ZM533,80.57h-2.71v3.28H533Z"/></g></g></svg>